# xmcd CD database file
#
# Track frame offsets:
#	150
#	13988
#	34854
#	54078
#	66629
#	80785
#	100319
#	117692
#	132324
#	143862
#	162867
#	179005
#	195937
#	212471
#	230304
#	244123
#	256870
#
# Disc length: 3659 seconds
#
# Revision: 0
# Processed by: cddbd v1.5.1PL0 Copyright (c) Steve Scherf et al.
# Submitted via: CDex 1.51
#
DISCID=f50e4911
DTITLE=Nat King Cole - After Midnight
DYEAR=1956
DGENRE=Jazz
TTITLE0=Just You, Just Me
TTITLE1=Sweet Lorraine
TTITLE2=Sometimes I'm Happy
TTITLE3=Caravan
TTITLE4=It's Only A Paper Moon
TTITLE5=You're Looking At Me
TTITLE6=Lonely One
TTITLE7=Don't Let It Go To Your Head
TTITLE8=I Know That You Know
TTITLE9=Blame It On My Youth
TTITLE10=When I Grow Too Old To Dream
TTITLE11=Route 66
TTITLE12=What is There To Say
TTITLE13=You Can Depend On Me
TTITLE14=I Was A Little Too Lonely
TTITLE15=Two Loves Have I
TTITLE16=Candy
EXTD=YEAR: 1956
EXTT0=
EXTT1=
EXTT2=
EXTT3=
EXTT4=
EXTT5=
EXTT6=
EXTT7=
EXTT8=
EXTT9=
EXTT10=
EXTT11=
EXTT12=
EXTT13=
EXTT14=
EXTT15=
EXTT16=
PLAYORDER=
